PathFileType	4	(X/Y/Z)	OpenSim_Sub03_CSBaseline_Accel.trc
DataRate	CameraRate	NumFrames	NumMarkers	Units	OrigDataRate	OrigDataStartFrame	OrigNumFrames
100	100	34	8	m	100	5806	9288
Frame#	Time	torso_imu_offset_imu	pelvis_imu_offset_imu	tibia_r_imu_offset_imu	femur_r_imu_offset_imu	tibia_l_imu_offset_imu	femur_l_imu_offset_imu	toes_r_imu_offset_imu	toes_l_imu_offset_imu
				X1	Y1	Z1	X2	Y2	Z2	X3	Y3	Z3	X4	Y4	Z4	X5	Y5	Z5	X6	Y6	Z6	X7	Y7	Z7	X8		Y8	Z8	

5806	58.05000000	9.00743217	1.99807627	6.28886692	10.41407850	-0.80753985	3.21439551	12.62074935	-1.69655105	1.09172832	9.79117491	-1.35781047	1.99356903	8.88587198	-4.69460368	2.33190819	8.40299317	0.60750618	-4.99918626	10.62689193	-2.06659838	6.96674545	6.62921110	-1.04544251	10.82327636
5807	58.06000000	8.66094244	2.02716081	6.02285939	10.24419554	-0.21868443	3.19469180	12.17206890	-1.36902521	1.31889233	9.99927139	-0.78855612	3.04943785	9.11194306	0.34607293	2.00321955	8.76926426	-2.05535630	-2.98378510	11.21516980	-1.54345132	6.53702818	6.20422795	-0.67791520	10.93693510
5808	58.07000000	8.65128183	2.03209799	5.80523255	9.74381987	0.40652799	3.26533778	12.11999858	-0.54958957	1.22545083	10.19616562	-0.30000447	3.47276692	10.49108366	2.44801350	1.49424389	9.24404581	-3.84345126	-0.20284788	12.90966181	-1.01424401	7.00541970	5.84029715	0.84672768	11.13047380
5809	58.08000000	8.73857921	2.02318496	5.63127488	9.30812270	0.59030174	3.40198287	12.12580719	0.54111454	0.71943138	10.19079252	0.16025084	3.42265377	9.96229010	2.85127620	1.85446993	9.63972871	-4.29351614	1.40358561	14.16763231	-0.56772940	5.83774446	5.08333823	1.11019718	11.09419925
5810	58.09000000	8.55398475	2.07174507	5.50978855	9.01895521	0.37594599	3.51972060	11.81750740	1.77283608	-0.16878702	10.43202428	0.29251490	3.27044342	8.80544061	1.87816739	0.13459145	9.61229763	-3.43437907	1.66680999	14.65920535	0.11166506	5.58737378	4.99119017	1.11906249	10.97751779
5811	58.10000000	8.45768549	2.09140935	5.40386461	8.86325172	0.02599894	3.63436011	11.99187514	3.11586574	-0.76869179	10.63592823	0.42862542	3.04532330	9.34536242	-0.12638840	-0.24201937	9.18094243	-1.66013974	1.19362392	16.16438709	-1.29620982	6.13422618	6.36237863	0.50866043	10.35083418
5812	58.11000000	8.57436441	2.10490759	5.33199463	8.71653286	-0.31242964	3.72629507	11.95964359	4.18789787	-1.04361838	11.16809267	0.39702694	2.84050121	9.92929513	-2.86101916	-1.34775177	9.14752530	0.11616915	0.13628221	13.17315783	-1.31398219	5.80014178	7.02899241	0.08162917	10.20521995
5813	58.12000000	8.65693204	2.15188609	5.24937450	8.67196861	-0.66999337	3.77296580	11.14246710	4.83533000	-1.56083520	11.21212063	0.36698181	2.48545116	9.75272837	-4.96929427	-2.45973923	9.26243287	1.02524785	-1.31619596	11.75075442	-0.99239534	6.73079237	5.78922235	0.74605288	10.84653756
5814	58.13000000	8.75801372	2.31274124	5.19161877	8.71925970	-1.03323835	3.69936311	10.15661867	4.93976310	-1.45248575	11.36293576	0.21504299	2.04399296	9.90604452	-4.76998894	-2.20993773	9.48925267	0.78394404	-2.72905781	11.86071304	-1.33008894	6.49843867	6.06605043	1.07374145	10.72617181
5815	58.14000000	8.91255964	2.40533582	5.22314138	9.00265619	-1.31877529	3.59437506	8.72339025	5.11790286	-1.22435293	11.41785118	0.11520191	1.84207902	10.12812957	-1.99919590	-1.70668740	9.69895857	-0.33159095	-3.42964452	11.86106375	-1.12089517	3.77164652	6.06135292	1.10915743	10.71451677
5816	58.15000000	8.98032260	2.39014080	5.27416134	9.41624996	-1.61306868	3.48547005	7.71736244	4.95878880	-1.22234254	10.98243956	-0.23810983	1.76133152	10.32420482	0.05214520	-1.04018321	9.53573729	-1.41490548	-3.15329184	12.70835374	-2.05903693	2.54439424	5.83173913	1.09999775	10.70209026
5817	58.16000000	9.13141715	2.35342567	5.23029332	9.96949399	-1.87246874	3.42053349	7.28042146	4.31697908	-1.54194584	10.93336979	-0.60572408	1.67476723	10.41120557	0.29003863	-0.53266867	9.25177722	-1.58459930	-2.66896589	15.01596999	-1.37054994	4.03469781	5.64037166	1.06162129	10.83097949
5818	58.17000000	9.19272190	2.32132653	5.23854331	10.33169792	-2.03351037	3.35549924	7.01566409	5.50583235	-1.17442767	10.64769553	-0.77163857	1.69629835	10.30161854	-0.00652776	-0.72235752	9.10877476	-0.75163644	-2.80213752	23.59307345	-1.98815275	11.16284794	5.74488178	0.65577822	10.61838643
5819	58.18000000	9.31121811	2.31287162	5.31609095	10.54674908	-2.09808132	3.25253222	7.01445187	10.35507200	-1.74569075	10.96209678	-0.91850153	1.87048753	10.07380210	0.04182770	-1.09648994	9.38580315	0.06980253	-2.85271447	24.34279984	-9.12674739	16.13401130	5.67451784	0.76948326	10.73498102
5820	58.19000000	9.41596438	2.26503670	5.41227318	10.28944203	-2.01877177	3.12528373	7.21894346	14.65588791	-2.89407345	11.44930481	-0.95563683	1.87077982	9.90770943	0.25257098	-1.07468858	9.59382033	0.07607835	-2.27307162	15.38237689	-15.96060747	9.92708445	5.47615260	1.08257358	10.87130984
5821	58.20000000	9.82561369	2.15629925	5.54474614	9.87696208	-1.85425479	3.02838066	7.29393157	12.62698617	-1.90107083	11.74755417	-1.08187853	1.62526990	10.04053607	0.85978993	-1.38069061	9.52865700	-0.54666867	-1.51400722	1.78735611	-11.25736022	4.04732747	5.29940991	0.93457537	11.10738641
5822	58.21000000	10.19769840	1.99976181	5.83451884	9.73596486	-1.50495062	2.96220924	6.35889176	6.50162839	-1.29467158	11.34861445	-0.79300143	1.24458520	10.23060158	0.91444266	-1.46370240	9.53155812	-1.09996241	-1.23342171	-1.05837027	-5.87043001	3.23209749	5.70991176	1.26439877	10.90819983
5823	58.22000000	10.15445718	1.83352385	6.00317577	9.74128461	-1.23073836	3.04103814	5.42472538	0.68334044	-0.47682821	10.78237666	-0.11449481	1.26524812	10.06811182	0.38914152	-1.49272358	9.73271588	-1.10519151	-1.51226027	0.57693104	-2.68317562	4.60903493	5.63190759	1.01431335	10.70536197
5824	58.23000000	9.66884893	1.58874404	6.02695239	9.87350040	-1.07986148	3.12843721	4.19300246	-1.96876619	1.84648082	9.94612343	0.11936195	1.62345586	9.97939761	0.23136703	-1.16015696	9.66221005	-0.68727001	-1.97954627	2.33805146	-1.64336114	5.94679831	5.68957540	0.90736168	10.77876669
5825	58.24000000	9.14044032	1.38444812	5.95054024	9.97478124	-1.00774949	3.16855625	3.72294642	-0.62935463	1.25545539	9.29459129	-0.04614728	1.96768726	9.90468058	0.77529854	-0.82313405	9.77888908	-0.08951039	-2.09929720	5.30365087	-1.56345989	8.07894947	5.36427708	1.21350932	11.04967208
5826	58.25000000	8.77909307	1.28620054	5.85525199	9.89486351	-1.20131439	3.18654006	4.98369220	3.44100398	-0.22740578	9.41226361	-0.23038943	2.19370419	9.77782578	1.45513179	-0.36596847	9.77659695	0.34458028	-1.79476937	6.64044956	-1.12961563	9.26915468	5.51495442	1.20639456	10.81960104
5827	58.26000000	8.59575823	1.31067917	5.76699443	9.65752420	-1.40269359	3.20314275	5.66403263	7.70974627	-1.33366462	9.77345742	-0.63590985	2.45205482	9.71106595	1.24651758	-0.29815208	9.58602486	0.57059012	-1.56797238	6.86034709	-0.46721307	9.19193909	5.74757923	0.89304592	10.49676774
5828	58.27000000	8.54474187	1.32593989	5.75061917	9.32429960	-1.50163723	3.10576001	5.42568342	9.49957291	-1.00785372	9.70078709	-0.87106495	2.55733768	9.73944152	0.32815287	-0.54720357	9.36316354	0.73700636	-1.61926372	6.00975627	0.46350943	8.24072668	5.84964216	0.65470390	10.58350593
5829	58.28000000	8.58760098	1.37232374	5.71762101	9.04258022	-1.35740750	3.01098149	4.81606878	9.23062778	-0.08724764	9.57336783	-1.10594855	2.52348908	9.81240962	-0.49271658	-0.77787651	9.32728664	0.79340191	-1.63985185	3.66428775	1.97185422	7.24307251	5.81362287	0.83787633	10.72519651
5830	58.29000000	8.49034754	1.36299652	5.70613689	8.83654916	-1.02165004	2.82145178	4.84805870	8.47866310	0.19674970	9.82007895	-0.86346406	2.36372871	9.62360665	-0.86458420	-0.81427570	9.46244075	0.68875151	-1.63518845	3.50497812	2.79556555	6.80653421	5.52726016	1.09082942	10.70074327
5831	58.30000000	8.32052341	1.37767120	5.71852477	8.68273936	-0.75323077	2.65415715	5.34088426	7.42235247	0.44577748	9.37139800	-0.46155747	2.34186256	9.67534612	-0.90137744	-0.89338667	9.51738532	0.32699715	-1.60548753	3.75517024	2.68423693	6.55391795	5.96110456	1.04630415	10.60215620
5832	58.31000000	8.28713031	1.44913379	5.75405025	8.76417606	-0.47331350	2.55308746	5.28109050	6.58303255	0.93732442	8.97791491	-0.23885555	2.34912750	9.70439458	-0.89686200	-0.93019089	9.56848516	-0.05493281	-1.70539886	4.39396709	1.53189159	6.51308686	6.10682616	1.00947890	10.41517647
5833	58.32000000	8.31422104	1.48272808	5.76561387	8.80837920	-0.42316516	2.42827825	4.96947196	6.41856058	1.06273791	9.32652831	0.26850704	2.28653692	9.55021997	-1.13126201	-0.71883911	9.51935787	-0.15509185	-1.85549850	5.29193321	0.72701885	6.93143656	6.11464554	0.89519356	10.43947905
5834	58.33000000	8.31301082	1.51949164	5.74622712	9.04143871	-0.47971160	2.39260077	4.97657228	6.98824197	0.83070817	9.05717180	0.38676281	2.27862296	9.54671732	-1.52112262	-0.73468857	9.42077735	-0.23514625	-1.84683912	6.65036136	0.98998096	7.59491089	5.72440577	0.79881236	10.61782341
5835	58.34000000	8.32956214	1.56185576	5.79853305	9.16346831	-0.67171964	2.35969821	5.27707575	7.43885440	0.90957772	8.52150963	0.52087444	2.28144770	9.67486975	-1.54787598	-0.45347471	9.43622587	-0.34685536	-1.68696150	7.51606038	1.57952673	8.04052749	5.90649807	0.76259449	10.44974335
5836	58.35000000	8.38792360	1.57605213	5.81467620	9.18962088	-0.99212356	2.40435087	5.20782673	7.22697573	1.00813457	8.40448740	0.87526058	2.35160421	9.63735319	-1.51623777	-0.46061399	9.58567732	-0.51444044	-1.51282423	7.52746255	1.40529496	7.64279600	6.16569464	0.56070667	10.37920066
5837	58.36000000	8.52958424	1.59138514	5.85664485	9.19204505	-1.29687370	2.38631809	5.39021925	6.40132852	1.50112707	8.16230253	0.69892839	2.62421021	9.58851783	-1.67549520	-0.31231130	9.60668000	-0.86178872	-1.31008368	7.39939359	0.13575933	7.03581562	6.33020207	0.47543937	10.33548007
5838	58.37000000	8.60514997	1.56817687	5.85876417	9.16452461	-1.43858346	2.36908567	5.58962744	5.49236951	1.38402927	8.30803176	0.71455706	2.86161066	9.49746323	-1.67355426	-0.45975768	9.54577010	-1.00893845	-1.19240366	8.35047124	-1.42225891	6.89130461	5.81837535	0.49085212	10.42019843
5839	58.38000000	8.66861467	1.55219092	5.91349084	9.15849017	-1.47052930	2.34413778	5.90634565	4.22562110	1.95374879	8.01281609	0.45306394	3.05783355	9.67049108	-1.48466798	-0.42089741	9.54647331	-0.92926216	-1.17472719	9.82144711	-2.55520040	7.17601624	6.08686478	0.67239157	10.40251585
